<?xml version="1.0" encoding="UTF-8" standalone="no"?>
<!-- Created with Inkscape (http://www.inkscape.org/) -->

<svg
   xmlns:dc="http://purl.org/dc/elements/1.1/"
   xmlns:cc="http://creativecommons.org/ns#"
   xmlns:rdf="http://www.w3.org/1999/02/22-rdf-syntax-ns#"
   xmlns:svg="http://www.w3.org/2000/svg"
   xmlns="http://www.w3.org/2000/svg"
   xmlns:sodipodi="http://sodipodi.sourceforge.net/DTD/sodipodi-0.dtd"
   xmlns:inkscape="http://www.inkscape.org/namespaces/inkscape"
   width="182.69"
   height="182.68532"
   id="svg2"
   version="1.1"
   inkscape:version="0.92.1 r15371"
   sodipodi:docname="lfg_info.svg"
   inkscape:export-xdpi="24.632521"
   inkscape:export-ydpi="24.632521">
  <defs
     id="defs4" />
  <sodipodi:namedview
     id="base"
     pagecolor="#ffffff"
     bordercolor="#666666"
     borderopacity="1.0"
     inkscape:pageopacity="0.0"
     inkscape:pageshadow="2"
     inkscape:zoom="2.8"
     inkscape:cx="72.364987"
     inkscape:cy="96.464298"
     inkscape:document-units="px"
     inkscape:current-layer="layer1"
     showgrid="false"
     fit-margin-top="0"
     fit-margin-left="0"
     fit-margin-right="0"
     fit-margin-bottom="0"
     inkscape:window-width="1920"
     inkscape:window-height="1016"
     inkscape:window-x="0"
     inkscape:window-y="27"
     inkscape:window-maximized="1" />
  <metadata
     id="metadata7">
    <rdf:RDF>
      <cc:Work
         rdf:about="">
        <dc:format>image/svg+xml</dc:format>
        <dc:type
           rdf:resource="http://purl.org/dc/dcmitype/StillImage" />
        <dc:title></dc:title>
      </cc:Work>
    </rdf:RDF>
  </metadata>
  <g
     inkscape:label="Calque 1"
     inkscape:groupmode="layer"
     id="layer1"
     transform="translate(-270.29196,-367.04984)">
    <path
       d="m 445.47727,458.39249 a 83.842659,83.842659 0 0 1 -83.84266,83.84266 83.842659,83.842659 0 0 1 -83.84266,-83.84266 83.842659,83.842659 0 0 1 83.84266,-83.84266 83.842659,83.842659 0 0 1 83.84266,83.84266 z"
       sodipodi:ry="83.842659"
       sodipodi:rx="83.842659"
       sodipodi:cy="458.39249"
       sodipodi:cx="361.63461"
       id="path3763"
       style="fill:#ffffff;stroke:none"
       sodipodi:type="arc"
       transform="matrix(1.0894533,0,0,1.0894533,-32.349399,-41.004707)" />
    <circle
       style="fill:#000000;stroke:none"
       id="path2985"
       transform="matrix(0.97444192,0,0,0.97444192,9.2426853,11.715631)"
       d="m 445.47727,458.39249 a 83.842659,83.842659 0 0 1 -83.84266,83.84266 83.842659,83.842659 0 0 1 -83.84266,-83.84266 83.842659,83.842659 0 0 1 83.84266,-83.84266 83.842659,83.842659 0 0 1 83.84266,83.84266 z"
       sodipodi:type="arc"
       sodipodi:ry="83.842659"
       sodipodi:rx="83.842659"
       sodipodi:cy="458.39249"
       sodipodi:cx="361.63461" />
    <g
       id="g3759"
       transform="matrix(0.56837064,-0.56837064,0.56837064,0.56837064,-104.44471,402.24987)">
      <path
         style="fill:none;stroke:#ffffff;stroke-width:30;stroke-linecap:round;stroke-linejoin:miter;stroke-miterlimit:4;stroke-dasharray:none;stroke-opacity:1"
         d="M 311.22244,508.80465 369.81129,450.2158"
         id="path3757"
         inkscape:connector-curvature="0"
         sodipodi:nodetypes="cc" />
    </g>
    <g
       transform="matrix(0.56837064,-0.56837064,0.56837064,0.56837064,-104.44471,361.17844)"
       id="g850">
      <path
         sodipodi:nodetypes="cc"
         inkscape:connector-curvature="0"
         id="path848"
         d="m 364.53303,455.49406 v 0"
         style="fill:none;stroke:#ffffff;stroke-width:30;stroke-linecap:round;stroke-linejoin:miter;stroke-miterlimit:4;stroke-dasharray:none;stroke-opacity:1" />
    </g>
  </g>
</svg>
